<svg xmlns="http://www.w3.org/2000/svg"  viewBox="0 0 64 64" width="64px" height="64px"><linearGradient id="TvtON3wnFNwszx6KeYJfNa" x1="40" x2="40" y1="13.5" y2="18.709" gradientUnits="userSpaceOnUse" spreadMethod="reflect"><stop offset="0" stop-color="#6dc7ff"/><stop offset="1" stop-color="#e6abff"/></linearGradient><path fill="url(#TvtON3wnFNwszx6KeYJfNa)" d="M26 15H54V17H26z"/><linearGradient id="TvtON3wnFNwszx6KeYJfNb" x1="40" x2="40" y1="29.667" y2="34.381" gradientUnits="userSpaceOnUse" spreadMethod="reflect"><stop offset="0" stop-color="#6dc7ff"/><stop offset="1" stop-color="#e6abff"/></linearGradient><path fill="url(#TvtON3wnFNwszx6KeYJfNb)" d="M26 31H54V33H26z"/><linearGradient id="TvtON3wnFNwszx6KeYJfNc" x1="40" x2="40" y1="45.5" y2="50.544" gradientUnits="userSpaceOnUse" spreadMethod="reflect"><stop offset="0" stop-color="#6dc7ff"/><stop offset="1" stop-color="#e6abff"/></linearGradient><path fill="url(#TvtON3wnFNwszx6KeYJfNc)" d="M26 47H54V49H26z"/><linearGradient id="TvtON3wnFNwszx6KeYJfNd" x1="40" x2="40" y1="9" y2="55.833" gradientUnits="userSpaceOnUse" spreadMethod="reflect"><stop offset="0" stop-color="#1a6dff"/><stop offset="1" stop-color="#c822ff"/></linearGradient><path fill="url(#TvtON3wnFNwszx6KeYJfNd)" d="M55,10H25c-1.654,0-3,1.346-3,3v6c0,1.654,1.346,3,3,3h30c1.654,0,3-1.346,3-3v-6 C58,11.346,56.654,10,55,10z M56,19c0,0.551-0.449,1-1,1H25c-0.551,0-1-0.449-1-1v-6c0-0.551,0.449-1,1-1h30c0.551,0,1,0.449,1,1V19 z"/><linearGradient id="TvtON3wnFNwszx6KeYJfNe" x1="40" x2="40" y1="9" y2="55.833" gradientUnits="userSpaceOnUse" spreadMethod="reflect"><stop offset="0" stop-color="#1a6dff"/><stop offset="1" stop-color="#c822ff"/></linearGradient><path fill="url(#TvtON3wnFNwszx6KeYJfNe)" d="M55,26H25c-1.654,0-3,1.346-3,3v6c0,1.654,1.346,3,3,3h30c1.654,0,3-1.346,3-3v-6 C58,27.346,56.654,26,55,26z M56,35c0,0.551-0.449,1-1,1H25c-0.551,0-1-0.449-1-1v-6c0-0.551,0.449-1,1-1h30c0.551,0,1,0.449,1,1V35 z"/><linearGradient id="TvtON3wnFNwszx6KeYJfNf" x1="40" x2="40" y1="9" y2="55.833" gradientUnits="userSpaceOnUse" spreadMethod="reflect"><stop offset="0" stop-color="#1a6dff"/><stop offset="1" stop-color="#c822ff"/></linearGradient><path fill="url(#TvtON3wnFNwszx6KeYJfNf)" d="M55,42H25c-1.654,0-3,1.346-3,3v6c0,1.654,1.346,3,3,3h30c1.654,0,3-1.346,3-3v-6 C58,43.346,56.654,42,55,42z M56,51c0,0.551-0.449,1-1,1H25c-0.551,0-1-0.449-1-1v-6c0-0.551,0.449-1,1-1h30c0.551,0,1,0.449,1,1V51 z"/><linearGradient id="TvtON3wnFNwszx6KeYJfNg" x1="13" x2="13" y1="9" y2="56.316" gradientUnits="userSpaceOnUse" spreadMethod="reflect"><stop offset="0" stop-color="#1a6dff"/><stop offset="1" stop-color="#c822ff"/></linearGradient><path fill="url(#TvtON3wnFNwszx6KeYJfNg)" d="M18,20c0,0.552-0.448,1-1,1H9c-0.552,0-1-0.448-1-1v-8c0-0.552,0.448-1,1-1h6V9H9 c-1.654,0-3,1.346-3,3v8c0,1.654,1.346,3,3,3h8c1.654,0,3-1.346,3-3v-4h-2V20z"/><linearGradient id="TvtON3wnFNwszx6KeYJfNh" x1="14" x2="14" y1="9" y2="56.316" gradientUnits="userSpaceOnUse" spreadMethod="reflect"><stop offset="0" stop-color="#1a6dff"/><stop offset="1" stop-color="#c822ff"/></linearGradient><path fill="url(#TvtON3wnFNwszx6KeYJfNh)" d="M10.707 15.293L9.293 16.707 12.5 19.914 18.707 13.707 17.293 12.293 12.5 17.086z"/><linearGradient id="TvtON3wnFNwszx6KeYJfNi" x1="13" x2="13" y1="9" y2="56.316" gradientUnits="userSpaceOnUse" spreadMethod="reflect"><stop offset="0" stop-color="#1a6dff"/><stop offset="1" stop-color="#c822ff"/></linearGradient><path fill="url(#TvtON3wnFNwszx6KeYJfNi)" d="M18,36c0,0.552-0.448,1-1,1H9c-0.552,0-1-0.448-1-1v-8c0-0.552,0.448-1,1-1h6v-2H9 c-1.654,0-3,1.346-3,3v8c0,1.654,1.346,3,3,3h8c1.654,0,3-1.346,3-3v-4h-2V36z"/><linearGradient id="TvtON3wnFNwszx6KeYJfNj" x1="14" x2="14" y1="9" y2="56.316" gradientUnits="userSpaceOnUse" spreadMethod="reflect"><stop offset="0" stop-color="#1a6dff"/><stop offset="1" stop-color="#c822ff"/></linearGradient><path fill="url(#TvtON3wnFNwszx6KeYJfNj)" d="M10.707 31.293L9.293 32.707 12.5 35.914 18.707 29.707 17.293 28.293 12.5 33.086z"/><linearGradient id="TvtON3wnFNwszx6KeYJfNk" x1="13" x2="13" y1="9" y2="56.316" gradientUnits="userSpaceOnUse" spreadMethod="reflect"><stop offset="0" stop-color="#1a6dff"/><stop offset="1" stop-color="#c822ff"/></linearGradient><path fill="url(#TvtON3wnFNwszx6KeYJfNk)" d="M18,52c0,0.552-0.448,1-1,1H9c-0.552,0-1-0.448-1-1v-8c0-0.552,0.448-1,1-1h6v-2H9 c-1.654,0-3,1.346-3,3v8c0,1.654,1.346,3,3,3h8c1.654,0,3-1.346,3-3v-4h-2V52z"/></svg>